<svg xmlns="http://www.w3.org/2000/svg" viewBox="0 0 200 61.07"><g id="Layer_2" data-name="Layer 2"><g id="Layer_1-2" data-name="Layer 1"><path d="M62.68,51.15c-.21-.07-.33-.1-.44-.15l-1.39-.7a1.2,1.2,0,0,1-.55-.45,4.6,4.6,0,0,0-.84-.92,3.34,3.34,0,0,0-.62-.35c-.16-.37-.16-.37-.74-.74a1.5,1.5,0,0,1-.59-.58,1.6,1.6,0,0,0-.42-.51,1.64,1.64,0,0,1-.44-.75c-.06-.16-.14-.31-.22-.48a1,1,0,0,1-.24-.17c-.09-.15-.11-.4-.29-.46s-.23-.25-.32-.36c-.21-.29-.41-.59-.6-.88a.57.57,0,0,1-.1-.31,3,3,0,0,0-.47-1.43.54.54,0,0,0-.1-.2.61.61,0,0,1-.19-.49c0-.35-.26-.58-.38-.87a1.69,1.69,0,0,0-.21-.3,2.63,2.63,0,0,0-.11-.51c-.07-.14,0-.29-.11-.45a1.29,1.29,0,0,1-.12-.69,7.85,7.85,0,0,0,0-.84,3.14,3.14,0,0,1-.3-.91,3.69,3.69,0,0,1-.27-1.75,5.21,5.21,0,0,0,.08-1,2.13,2.13,0,0,0-.08-.61.64.64,0,0,1,.07-.65s0-.11,0-.14c-.22-.22,0-.53-.19-.77a.5.5,0,0,1,0-.43,1.22,1.22,0,0,0,.09-.7,2.51,2.51,0,0,1,.29-1.21.8.8,0,0,0,.11-.5,1,1,0,0,1,0-.3,2.08,2.08,0,0,1,0-.71c.09-.23-.07-.5.14-.68a1.25,1.25,0,0,1,.23-.89,2.7,2.7,0,0,0,.49-1,4.71,4.71,0,0,0,.16-.62.79.79,0,0,1,.16-.37,1.27,1.27,0,0,0,.17-.38,2.28,2.28,0,0,0,.18-.79c.18-.32.35-.59.49-.86a3.57,3.57,0,0,1,.8-1.05s.08-.06.09-.09c.09-.31.32-.55.43-.86a6.53,6.53,0,0,1,.5-.83,2,2,0,0,1,.61-.67l.51-.32c.14-.1.22-.26.39-.33s.12-.17.18-.26.22-.17.26-.34.19-.13.29-.18l-.29-.82c.19-.14,0-.29,0-.44l.08-.14a3.83,3.83,0,0,1-.08-.42c0-.28,0-.56,0-.84,0-.09,0-.18.06-.27s.08-.27,0-.32-.06-.31-.09-.46-.07-.27-.1-.41-.07-.36-.09-.55a2.38,2.38,0,0,0-.09-.51,1.71,1.71,0,0,1,.12-1,1.24,1.24,0,0,0,.06-.37c0-.46,0-.92,0-1.38l.36-.35h.41l.46.39c.18.15.34.32.54.46a1.27,1.27,0,0,1,.54.6,2,2,0,0,0,.48.59,2.64,2.64,0,0,1,.48,1,11.94,11.94,0,0,1,1.93,2.25c.22-.14.44-.26.64-.4a.9.9,0,0,1,.56-.14l.39-.19c.08,0,.19,0,.25-.1a1,1,0,0,1,.88-.3c.54-.16.92-.42,1.41-.21a.47.47,0,0,0,.5-.07c.21-.18.5-.11.75-.2a12.19,12.19,0,0,0,1.46-.3s.15,0,.22.06a3.64,3.64,0,0,0,1.82.22s.07-.06.12-.1l.43.23,1-.12a1.48,1.48,0,0,1,.51.09,9.39,9.39,0,0,0,1,.21.82.82,0,0,1,.3.1,5,5,0,0,0,1.24.46,4.53,4.53,0,0,0,1,.13,3.65,3.65,0,0,0,.37-.29,3.37,3.37,0,0,0,.3-.36c.1-.12.18-.26.29-.38a.64.64,0,0,0,.11-.25.73.73,0,0,1,.46-.53,5.44,5.44,0,0,0,.37-.84.52.52,0,0,1,.17-.27,6,6,0,0,0,.81-1c.08-.14.28-.2.4-.32.26-.28.51-.58.79-.89,0,0,.12,0,.16,0a.5.5,0,0,1,.61,0,.78.78,0,0,1,.37.53,4.68,4.68,0,0,1,.09,1.58,4.19,4.19,0,0,1-.23.84,1.72,1.72,0,0,0,0,.9.69.69,0,0,1,0,.37,2,2,0,0,0,0,1A1.87,1.87,0,0,1,83.31,15a.92.92,0,0,0,0,.44,3.08,3.08,0,0,1-.25,1.23,10,10,0,0,1,1,.71,1,1,0,0,0,.36.22.79.79,0,0,1,.48.55,1.78,1.78,0,0,0,.33.66,6.87,6.87,0,0,0,.79.83l.07-.06.12.44c0,.17.33.08.3.31.48.17.6.66.88,1a.94.94,0,0,1,.16.23,2.56,2.56,0,0,1,.37.84,2.54,2.54,0,0,0,.56,1.14,3.94,3.94,0,0,1,.41.72c.09.19.24.36.34.55a1,1,0,0,1,.14.48,4,4,0,0,0,.43,1.85c.1.22,0,.44.1.64l.47,1c0,.11-.08.31.07.52s-.08.42.11.59c-.05.38.1.78-.08,1.15a.33.33,0,0,0,0,.19c.19.32.09.71.29,1-.07.51.17,1,.1,1.49,0,.32-.19.62-.24.94a6.94,6.94,0,0,0,0,.91,1.07,1.07,0,0,0,.09.27,1.74,1.74,0,0,0-.12,1.31,1,1,0,0,1,0,.46,4.43,4.43,0,0,0-.17.72,1.42,1.42,0,0,1-.18.66c-.14.23-.11.56-.38.72a10.33,10.33,0,0,1-.54,2.52A3.84,3.84,0,0,0,88.12,44l-.35.34A3,3,0,0,1,87,45.92c-.19.22-.33.46-.49.68a1.17,1.17,0,0,1-.45.34,1.73,1.73,0,0,0-.44.41c-.35.38-.53.88-.94,1.2-.08.06-.18.12-.21.21-.08.3-.34.39-.59.47s-.42.23-.66.3a2.18,2.18,0,0,0-.59.47c-.14.12-.26.26-.4.39H82l0,0-.78.79a6.8,6.8,0,0,0-.83.33,2.26,2.26,0,0,1-1.42.44,1.19,1.19,0,0,1-.54.3c-.21,0-.33.27-.57.3a1,1,0,0,0-.59.22c-.17.23-.45.07-.6.27-.51-.28-1,.07-1.52,0l-.56.3a.74.74,0,0,0-.62,0,2.85,2.85,0,0,1-1.38.25,7.37,7.37,0,0,0-.94,0,1.52,1.52,0,0,1-.6-.1c-.17-.07-.32-.17-.52,0s-.26,0-.44-.06a1.63,1.63,0,0,1-1.13,0c-.27.28-.53-.05-.81,0a3,3,0,0,0-1.92-.54l-.25-.3h-.45c-.13,0-.29.05-.4-.09-.11.19-.22,0-.31,0a1.44,1.44,0,0,1-.68-.38,1,1,0,0,1-.69-.23A5,5,0,0,1,62.68,51.15ZM84.59,28.81a2.26,2.26,0,0,0-.32-.78,2,2,0,0,1-.27-.58,1.3,1.3,0,0,1-.12-.45c0-.15-.18-.24-.28-.36l-.9-1.05c-.38-.11-.45-.46-.58-.74a1.94,1.94,0,0,0-1.05-1.06,1.8,1.8,0,0,0-1.21-.72c-.25-.2-.4-.4-.6-.47A3,3,0,0,1,78.18,22a.57.57,0,0,0-.27-.16L77,21.7a7.85,7.85,0,0,0-.72.5,5.36,5.36,0,0,0-.78.8c-.16.22-.27.48-.56.6-.06,0-.08.15-.14.23-.27.34-.4.78-.77,1.06-.07.05-.17.08-.21.15a3.2,3.2,0,0,1-1,.9c-.06,0-.17.07-.19.13s-.18.25-.28.38-.19.24-.28.37c-.25.35-.42.34-.77.31h-.18c-.22-.17-.42-.29-.58-.44a1.25,1.25,0,0,1-.51-.72.48.48,0,0,0-.08-.16,3,3,0,0,0-1-1,.32.32,0,0,1-.13-.15c-.11-.38-.45-.53-.74-.7a1.47,1.47,0,0,1-.45-.41,1.18,1.18,0,0,0-.17-.22,3.15,3.15,0,0,1-1-1.4c-.27.11-.51.21-.75.29s-.3.08-.43.15a1.74,1.74,0,0,1-.89.29,1.31,1.31,0,0,0-.91.41c-.12.14-.25.27-.36.38h-.29c-.3.36-.58.71-.87,1-.09.1-.26.14-.33.25a3.13,3.13,0,0,1-.87.87,1.41,1.41,0,0,0-.32.4,3.52,3.52,0,0,0-.35.7,5.64,5.64,0,0,0-.32.75,1,1,0,0,1-.28.47,2.15,2.15,0,0,0-.69,1,3,3,0,0,0-.1.65l-.29.29v.63a1.7,1.7,0,0,1,0,.39,3.75,3.75,0,0,1-.16.43,1.41,1.41,0,0,0-.12.48,2.18,2.18,0,0,1-.16.68,2.58,2.58,0,0,0-.14.39,1.11,1.11,0,0,0,0,.48c0,.14-.2.25,0,.37A11.91,11.91,0,0,1,58,35c0,.41-.05.83-.09,1.24a1.89,1.89,0,0,0,.14,1,.54.54,0,0,1,0,.55l.18.38a3.8,3.8,0,0,1,.32.81,2.09,2.09,0,0,0,.34,1l.16,1a.21.21,0,0,1,.07.07A7.8,7.8,0,0,0,59.9,42a4.18,4.18,0,0,1,.66,1.21c.16.44.37.91.85,1a2.16,2.16,0,0,0,.36.5,6.74,6.74,0,0,0,.79.45,1.08,1.08,0,0,0,.48.51,2.55,2.55,0,0,1,.84.69c.18.22.45.28.66.44s.18,0,.26.07a5.47,5.47,0,0,0,1.18.4c.12,0,.23.15.34.23s.2.18.33.26a2.24,2.24,0,0,0,1.4.38l.19.19a5.36,5.36,0,0,1,1.44.11,1.16,1.16,0,0,0,.4.09,2.11,2.11,0,0,1,1.3.32,1.22,1.22,0,0,1,.32-.11,6.2,6.2,0,0,1,1.14-.1c.1,0,.19-.09.25-.09s.4-.22.59-.09.44,0,.61.09.37,0,.57,0,.39-.19.6-.23a.52.52,0,0,1,.44,0c.31-.19.69-.28.93-.61a1.44,1.44,0,0,0,.81-.18,4.84,4.84,0,0,1,1.27-.33l1.75-1.37A2.14,2.14,0,0,0,82,45a3,3,0,0,1,.4-.4,1.7,1.7,0,0,0,.19-.19,4.09,4.09,0,0,1,.46-.79,7.41,7.41,0,0,0,.69-.9,1.78,1.78,0,0,1,.28-.38,1.74,1.74,0,0,0,.54-.91c0-.06,0-.12,0-.18.16-.5.32-1,.51-1.59l.28-.28a2.07,2.07,0,0,1,.19-.48c.13-.14,0-.37.16-.48l-.07-.49.14-.26v-1s0,0,0,0a5,5,0,0,0,.16-.73,6.48,6.48,0,0,1,.1-1.24c.1-.37-.11-.72-.09-1.09-.24-.41-.15-.91-.39-1.32a.65.65,0,0,1,0-.39,1.85,1.85,0,0,0-.42-1.69v-.49Z"/><path d="M178,24a.69.69,0,0,0,.07-.29,4.53,4.53,0,0,0-.07-1.1,1.16,1.16,0,0,1,.08-.89c.11-.19,0-.43.19-.61,0,0,0-.1,0-.15-.16-.41,0-.88-.24-1.28a.42.42,0,0,1-.05-.22,13.74,13.74,0,0,0-.1-1.44c0-.07-.07-.14-.1-.2s.07-.17.1-.26a1.85,1.85,0,0,1,0-.23,3.62,3.62,0,0,0,.25-1.87,2.08,2.08,0,0,0-.18-.51c.07-.31.35-.61.09-1a3.77,3.77,0,0,0-.19-1c0-.14.07-.3.09-.45s-.06-.32,0-.39-.07-.24,0-.37a.85.85,0,0,0,0-.39,2.56,2.56,0,0,1,.19-1.06,1.82,1.82,0,0,0,.1-.88l.28-.12a1.34,1.34,0,0,1,.26-.09c.23,0,.45-.16.7-.11s.21-.06.3-.08.23-.09.35-.11a6.15,6.15,0,0,1,.85-.1c.41,0,.82,0,1.19,0a12.41,12.41,0,0,0,3.18,1.12c0,.22.07.46-.08.71a.69.69,0,0,0,0,.46,4.3,4.3,0,0,1,.24,1.78,1.28,1.28,0,0,1-.09.28.6.6,0,0,1,.09.18,5.33,5.33,0,0,1,0,1.13,4,4,0,0,1-.14.67,1.36,1.36,0,0,0,0,.72,3.2,3.2,0,0,1,.07.41,7.59,7.59,0,0,0,.19,1.06.64.64,0,0,1,0,.24,1.3,1.3,0,0,0,.09.55c.07.16-.06.35.1.51s0,.17-.07.26a4,4,0,0,0-.21.75c0,.45,0,.91,0,1.37,0,.05.05.09.06.13,0,.23.19.42.06.7s.05.62.1.93a4.5,4.5,0,0,0,.27.77c0,.22.08.54-.08.85,0,.07.07.2.08.3s0,.39,0,.59a1,1,0,0,0,.08.29c-.08.41-.35.85-.09,1.33-.09.44.23.81.21,1.24a1.21,1.21,0,0,0,.09.41,1.07,1.07,0,0,1,0,.81,5.28,5.28,0,0,0-.11.89c0,.28,0,.56,0,.84s0,.42.2.58l.31-.11.27.25c.39-.18.81-.14,1.18-.31a.64.64,0,0,1,.49,0,2.86,2.86,0,0,0,1,.08,2.51,2.51,0,0,1,.6.1,2.67,2.67,0,0,0,1.72,0,.41.41,0,0,1,.18-.05,6.86,6.86,0,0,0,1.19-.12,1.49,1.49,0,0,0,.31-.91c0-.28,0-.56,0-.83s0-.31-.08-.47,0-.28,0-.42.07-.18.06-.27a4.07,4.07,0,0,0-.28-1.22,1.21,1.21,0,0,0,.08-.34c0-.38,0-.75,0-1.13a3.18,3.18,0,0,1,.17-.92,1.09,1.09,0,0,0,0-.62,1.51,1.51,0,0,1-.07-.46c0-.25-.07-.5-.1-.75a1.9,1.9,0,0,0-.09-.7c-.07-.15,0-.36,0-.54a1.92,1.92,0,0,0-.07-.38c.05-.19.11-.41.18-.63a4.75,4.75,0,0,0,.19-1.54,2.8,2.8,0,0,0-.09-.31,1.47,1.47,0,0,1-.1-.4,3,3,0,0,1,.09-.41,3.91,3.91,0,0,0-.13-1,1.08,1.08,0,0,0-.08-.46c-.14-.17-.06-.28,0-.42a.34.34,0,0,0,0-.1c-.08-.62.13-1.22.1-1.75l.49-1a3.72,3.72,0,0,1,0-.57c0-.2.08-.4.12-.61h3.1a.67.67,0,0,1,.39.12c.23.19.53.25.76.44a1.62,1.62,0,0,0,.5.22l.25.12v.31a2.43,2.43,0,0,0,.09.8,1.54,1.54,0,0,1,.1.35c0,.11-.07.23-.09.35a3.62,3.62,0,0,0,.22,1.39,2.54,2.54,0,0,1,0,1.13.62.62,0,0,0,0,.23,2.3,2.3,0,0,1,0,1.3,6.62,6.62,0,0,0-.09,1,2.53,2.53,0,0,0,.09.55,2.7,2.7,0,0,0,.08.56,4,4,0,0,1,.11,1c0,.3.12.58.12.89a3.56,3.56,0,0,1-.13.75,8.15,8.15,0,0,0-.19,1.3,3.61,3.61,0,0,0,.16.87.77.77,0,0,1,0,.33,2.5,2.5,0,0,1-.19.41c.16.12,0,.33.11.45s0,.31.11.45a1.25,1.25,0,0,1,.1,1,1,1,0,0,0,.06.8,2.88,2.88,0,0,1-.1,1.28c-.14.29-.27.56-.08.87-.05.67.31,1.31.19,2a1.56,1.56,0,0,1,.1.8,1.35,1.35,0,0,1-.09.55,3.88,3.88,0,0,0-.2,1.69,4.13,4.13,0,0,0,.18.66,2.45,2.45,0,0,0-.17.61,2.32,2.32,0,0,0,.11.63c.05.2.14.38.17.58s0,.52,0,.78a.18.18,0,0,1,0,.13.41.41,0,0,0,0,.42,1.62,1.62,0,0,1-.08,1.28,5.19,5.19,0,0,0-.13,1.57c.17.25,0,.54.1.79a7.89,7.89,0,0,1,.1,1.67l-.27.53c-.05.25-.09.48-.13.71a1.77,1.77,0,0,0-.08.74c.09.22,0,.48.17.65a2.91,2.91,0,0,0-.18.67,1,1,0,0,0,.08.71c.05.07,0,.22,0,.33s0,.22.06.33a.22.22,0,0,1,0,.22,5,5,0,0,0-.18,1c0,.36,0,.73,0,1.08a4.16,4.16,0,0,1-.25.83c-.07.21-.25.41,0,.65,0,.06,0,.19,0,.33-.51-.08-1,.15-1.48.09a10.61,10.61,0,0,1-2.22.1,4.68,4.68,0,0,0-1.23-.41,2.43,2.43,0,0,1-.69-.23v-.29a2.14,2.14,0,0,0-.08-.75.61.61,0,0,1,0-.52.91.91,0,0,0,0-.52,3.74,3.74,0,0,0-.22-.89.72.72,0,0,1-.06-.47,2.6,2.6,0,0,0,0-1.3,2.4,2.4,0,0,1,.13-1.12c.08-.27.26-.56.14-.82s0-.73-.18-1.06c0,0,0,0,0,0,0-.43-.06-.86-.1-1.29,0-.2-.07-.4-.09-.6a1.66,1.66,0,0,1,.25-.94,6.06,6.06,0,0,0,.13-.67c0-.23,0-.46,0-.69a.71.71,0,0,0-.09-.36.7.7,0,0,1,0-.7.66.66,0,0,0,0-.69,1.7,1.7,0,0,0-1-.22c-.39.08-.7-.15-1.06-.2-.34-.31-.73-.12-1.1-.07s-.6.13-.91.18a7.79,7.79,0,0,0-1.52.26c-.24.09-.39-.13-.64-.14a2.27,2.27,0,0,0,.05.89c.12.3-.05.57-.17.86a.69.69,0,0,1,.1.19,1.31,1.31,0,0,0,.09.51c.06.13,0,.32.11.44-.05.32.09.64-.08,1a.94.94,0,0,0,0,.38c0,.17,0,.33,0,.5a2.55,2.55,0,0,1-.24,1.33.59.59,0,0,0,0,.46A.61.61,0,0,1,187,47a13.79,13.79,0,0,1,.1,1.93,2,2,0,0,1,.1.9.6.6,0,0,1-.08.31,4.12,4.12,0,0,0-.31,2.14c.22.34,0,.65-.1,1,0,0,0,0,0,0s.09.26.1.4a13.63,13.63,0,0,0-1.33.36.73.73,0,0,1-.58,0,1.93,1.93,0,0,0-.68,0,2.46,2.46,0,0,1-1.2-.21,5.52,5.52,0,0,1-.85-.54c0-.26-.31-.08-.39-.24-.22.07-.4-.07-.6-.1s-.36-.17-.52-.16a3.43,3.43,0,0,1-.86-.13l-.56-.13a3.05,3.05,0,0,1-.14-1.1,1,1,0,0,1,.1-.45c.06-.12-.07-.3.08-.41a4.27,4.27,0,0,0,0-2.16.45.45,0,0,1,0-.32.65.65,0,0,0,.08-.31c0-.11.05-.27,0-.33s-.06-.43-.14-.64a2.26,2.26,0,0,1-.06-1.48s0-.08,0-.09c-.18-.22-.07-.47-.09-.7a1.27,1.27,0,0,1,0-.62c.12-.2-.07-.44.15-.58,0-.22.08-.46-.07-.66a.29.29,0,0,1,0-.09,8,8,0,0,0-.19-1.3,13.74,13.74,0,0,1-.11-1.44.84.84,0,0,1,.09-.51.82.82,0,0,0,.1-.44,3.12,3.12,0,0,1,.09-.46c0-.17-.11-.34-.09-.55a1.19,1.19,0,0,0-.08-.55c-.15-.36-.12-.41.09-.81l-.47-1.5s0,0,0,0a3.4,3.4,0,0,0,0-1.19,1.73,1.73,0,0,1,0-.68c0-.22.08-.43.12-.64a1.27,1.27,0,0,0,0-.77,1,1,0,0,1,0-.24,2.21,2.21,0,0,0-.17-.92.58.58,0,0,1,0-.19,4.13,4.13,0,0,0-.19-1.15,1.18,1.18,0,0,1,.1-.84.76.76,0,0,0,.08-.36,8.65,8.65,0,0,0,.11-.89,3.22,3.22,0,0,0-.18-1,.51.51,0,0,1,0-.32,1,1,0,0,0,0-.86C178.19,24.62,178.09,24.31,178,24Z"/><path d="M8.3,21.34c-.09.23-.11.49-.25.61s-.14.38-.22.57-.17.39-.24.59a2,2,0,0,0-.19.55,2.75,2.75,0,0,1-.15.7,3.37,3.37,0,0,0-.93,1.77.65.65,0,0,0,.12.7,1.69,1.69,0,0,0-.32,1.45c0,.21.08.43.09.65-.22.15,0,.44-.19.61,0,0,0,.16,0,.24a5.46,5.46,0,0,1-.24,1.88s0,.05,0,.06c.26.39.09.88.3,1.26.08.16,0,.3.11.45a2.89,2.89,0,0,1,.1.48,2.37,2.37,0,0,1,.24,1.58c-.16.12.09.19,0,.32a.56.56,0,0,0,0,.34,2.59,2.59,0,0,0,.59,1.29v.68c.23.31.48.59.68.91a1.61,1.61,0,0,1,.28.71.86.86,0,0,0,.22.5,2.89,2.89,0,0,1,.49,1.14c.05.16.09.32.14.53s.42.41.61.68a4.87,4.87,0,0,0,.72.62,7.69,7.69,0,0,1,1,.82,2.33,2.33,0,0,1,.27.37c.24.52.74.71,1.18,1,.15.08.39,0,.56,0l.55.4a5.16,5.16,0,0,0,1.33-.09s.05,0,.09,0a4.18,4.18,0,0,0,1.32.13c.17,0,.32-.15.5-.08a2.22,2.22,0,0,0,.47.17,1,1,0,0,0,.74-.09.7.7,0,0,1,.45-.09,7.87,7.87,0,0,1,.93-.39,3.77,3.77,0,0,0,.81-.31,1.37,1.37,0,0,1,.81-.19,2.88,2.88,0,0,0,1.05-.2.62.62,0,0,0,.19-.14l.3-.23c0-.11.08-.33.2-.43s.17-.29.36-.29a3.62,3.62,0,0,0,.15-1.22,1.47,1.47,0,0,1,.13-.54,1.31,1.31,0,0,0,.15-.77A2.66,2.66,0,0,1,24,39.78a1.29,1.29,0,0,0,0-.7c0-.13-.06-.24-.09-.39s-.3,0-.47.06a1.81,1.81,0,0,1-1.08-.09,2.33,2.33,0,0,0-1.16-.19H20.4c-.23,0-.46.08-.7.09a.47.47,0,0,1-.41-.07.35.35,0,0,0-.29,0c-.21.08-.44.05-.64.11s-.43,0-.6.1a4.3,4.3,0,0,1-1.09.1,3.37,3.37,0,0,1,0-.45,8.64,8.64,0,0,0-.1-1.24,7.12,7.12,0,0,1,.24-1.38c0-.14.1-.32,0-.41a.94.94,0,0,1-.07-.61,2.33,2.33,0,0,0-.11-.65c-.05-.22.1-.46-.1-.65v-1a4.21,4.21,0,0,1,1.83.17c.24.1.54,0,.79.12a3.06,3.06,0,0,0,.9.09,1.3,1.3,0,0,0,.55-.09,1,1,0,0,1,.84,0c.17.06.29.1.44,0a.32.32,0,0,1,.14,0,2.75,2.75,0,0,0,1.1-.2.17.17,0,0,1,.1,0,5.62,5.62,0,0,0,1.64.1.27.27,0,0,0,.09,0,3,3,0,0,1,1.3.22.86.86,0,0,0,.67,0,.32.32,0,0,1,.14,0c.68,0,1.36-.08,2-.09a8.79,8.79,0,0,1,1.15-.12.92.92,0,0,1,.62.27,3.38,3.38,0,0,0-.11.57c0,.28,0,.56,0,.84a3,3,0,0,0,0,.73,2.72,2.72,0,0,0,.17.62.69.69,0,0,1-.09.49,1,1,0,0,0,.05.8,2.69,2.69,0,0,0,.25.88.17.17,0,0,1,0,.14,2.38,2.38,0,0,0-.09,1.24,4,4,0,0,1-.24,1.6c0,.06-.08.13-.06.17.15.31,0,.65.11.94a1.45,1.45,0,0,1,.07.71c-.08.54-.06,1.1-.19,1.64a.47.47,0,0,1-.1.25,5,5,0,0,0-.83,1.43,6,6,0,0,0-.44,1,.35.35,0,0,1-.2.24.94.94,0,0,0-.44.48c-.14.29-.33.55-.44.85a1.76,1.76,0,0,1-.73.84c-.12.08-.18.25-.29.36l-.68.68A2.86,2.86,0,0,0,25.4,51a3.16,3.16,0,0,1-.73.5c-.23.15-.42.4-.74.37a7.5,7.5,0,0,1-1.35.55.47.47,0,0,1-.23,0,4.62,4.62,0,0,0-1.7,0,2.7,2.7,0,0,0-1,.32c-.29-.09-.56-.22-.83,0a2.49,2.49,0,0,0-1.07.27.7.7,0,0,1-.29,0,1.75,1.75,0,0,1-.85-.1c-.26.18-.56.08-.85.1a1.27,1.27,0,0,1-.66-.17,1.93,1.93,0,0,0-1-.22h-.24a3.19,3.19,0,0,1-1,0c-.31-.11-.63,0-.93-.16s-.42,0-.64-.1a1.5,1.5,0,0,1-.54-.26,8.65,8.65,0,0,0-2-1.29,2.21,2.21,0,0,0-.39-.13c-.24-.21-.22-.61-.57-.61-.27-.17-.5-.34-.74-.47a1.05,1.05,0,0,1-.53-.41,3.27,3.27,0,0,0-.58-.6l-.8-.81c0-.08,0-.17-.07-.26s-.3-.32-.28-.57c0,0-.06-.09-.1-.1-.26-.1-.35-.35-.52-.52a5.9,5.9,0,0,1-.55-.57c-.21-.25-.39-.52-.58-.79a6.45,6.45,0,0,1-.37-.54,1.69,1.69,0,0,1-.21-.74,5.54,5.54,0,0,0-.31-1.56,1.61,1.61,0,0,0-.39-.68v-.75c-.31-.42-.39-.93-.7-1.33,0-.12,0-.26,0-.39a5.19,5.19,0,0,0-.15-1c0-.3-.3-.59-.06-.9-.15-.12,0-.23,0-.36a2.51,2.51,0,0,0,0-.39A.51.51,0,0,0,.77,36c-.14-.17-.06-.37-.1-.55-.26-.27-.19-.68-.39-1a1.72,1.72,0,0,0-.22-1,1.22,1.22,0,0,1,.07-.89c.1-.29,0-.57.1-.85a1.09,1.09,0,0,0,0-.83,3,3,0,0,1-.1-.69,1.55,1.55,0,0,1,.14-.53c0-.08.07-.19,0-.22S.2,29.1.19,28.91A3.22,3.22,0,0,0,.1,28.4a2.35,2.35,0,0,1,.13-1c0-.07,0-.15.05-.22a6.9,6.9,0,0,1,.13-1,5.38,5.38,0,0,1,.41-.92A1.62,1.62,0,0,0,1,24.69a6.92,6.92,0,0,1,.36-2,1.87,1.87,0,0,0,0-.34,1.44,1.44,0,0,1,.36-.84,4.57,4.57,0,0,0,1-1.79c0-.16.08-.33.14-.57l.34-.32a.42.42,0,0,0,.11-.15A2.51,2.51,0,0,1,3.59,18a3.39,3.39,0,0,0,.3-.72,1,1,0,0,0,.23-.14c.08-.07.11-.2.19-.27a3.18,3.18,0,0,0,.55-.55,3,3,0,0,1,.59-.59,2.34,2.34,0,0,1,.61-.31A1.36,1.36,0,0,0,6.64,15a14.39,14.39,0,0,1,2.14-1.74A5.09,5.09,0,0,1,9.25,13c.13,0,.34.06.45,0s.3.11.44-.07.29-.07.44-.11L11,12.7a2.68,2.68,0,0,0,.47-.18,5.1,5.1,0,0,0,.43-.28h.29a1.69,1.69,0,0,0,.87-.18c.29-.17.69-.14,1-.31a.23.23,0,0,1,.2,0,2.41,2.41,0,0,0,1.19.08,3.75,3.75,0,0,1,1.29.25c.23.07.46.15.7.2.09,0,.2-.06.28,0a6.14,6.14,0,0,0,1.54.1c.12,0,.24.07.36.09a2.77,2.77,0,0,0,.5.1,1.09,1.09,0,0,1,.5.1,1.79,1.79,0,0,1,.24.12,8,8,0,0,0,1.3.8,3.6,3.6,0,0,0,1.21.37l.37.42c.33.14.59.21.81.33s.27.09.33.15.26,0,.35.12a1.81,1.81,0,0,0,.18.27c.29.31.6.61.9.91a2,2,0,0,1,.61,1c0,.22.26.4.18.65l.4.39,0,0a1.68,1.68,0,0,0,.25.48,5.43,5.43,0,0,1,.59,1c0,.05,0,.14,0,.17.29.26.25.66.44,1,.05.08-.06.21,0,.34s-.08.27,0,.37a3.15,3.15,0,0,1,.1.75,4.36,4.36,0,0,0,.26.77,4.39,4.39,0,0,0,.29.62c.08.26-.05.54.13.82l-.53,0-1.06.56a8.53,8.53,0,0,0-1.25.14c-.35.1-.71.17-1.07.26a3.88,3.88,0,0,1-1.14.13,9.43,9.43,0,0,0-1.07,0,1.07,1.07,0,0,0-.2-.85,1.86,1.86,0,0,0-.24-.83,7.94,7.94,0,0,1-.28-.77,5.13,5.13,0,0,1-.39-1c-.18-.1,0-.2,0-.31a4.59,4.59,0,0,0-.36-1.39c0-.1-.07-.22-.15-.28a3.52,3.52,0,0,1-.35-.31c-.06-.07-.17-.12-.18-.2a.63.63,0,0,0-.26-.48,1.45,1.45,0,0,0-.86-.31H20a2.29,2.29,0,0,0-.87-.39A4.36,4.36,0,0,1,18,18.16l-.66-.4c-.71,0-1.45,0-2.18,0-.27,0-.53.1-.8.09a1.33,1.33,0,0,1-.79-.2.9.9,0,0,1-.27.1,1.5,1.5,0,0,0-1.25.56l-.13.13a1,1,0,0,0-.89.4c-.18.25-.45.44-.55.74a2.91,2.91,0,0,0-.84.61A3.68,3.68,0,0,1,8.3,21.34Z"/><path d="M153.4,28.06v.58c.32.26.49.68.93.76a3.31,3.31,0,0,0,1,1.18c.13.12.28.22.4.34a2.66,2.66,0,0,1,.28.38,2,2,0,0,0,.25.33c.1.1.16.25.35.24s.14.05.2.09a4,4,0,0,0,1.15.56,5.05,5.05,0,0,0,1.16.44c.3,0,.48.35.68.54a2.33,2.33,0,0,1,.66.25c.21.16.49,0,.67.18a1.21,1.21,0,0,1,1.2.1,4.74,4.74,0,0,0,.82-.05,6.31,6.31,0,0,1,.85-.11s0,0,0,0a3.09,3.09,0,0,0,.79.12,8.54,8.54,0,0,1,1.24.12,2.59,2.59,0,0,1,.63.25,1.33,1.33,0,0,0,.44.14,7.48,7.48,0,0,1,1.81.27,4.26,4.26,0,0,1,.74.23c.23.11.51,0,.68.27.35,0,.46.42.75.54.09.35.47.39.67.65a1.71,1.71,0,0,0,.53.36l.58.28a.64.64,0,0,1,.35.34,1.36,1.36,0,0,0,.54.55l.5.35.48.36a.12.12,0,0,0,0,.09c.33.37.44.87.75,1.27a1.44,1.44,0,0,1,.32,1c0,.11.15.2,0,.31.12.08.07.2.09.31a1.4,1.4,0,0,0,.1.35c0,.1.13.18.15.28a7.2,7.2,0,0,0,.5,1.18c.07.15,0,.34.13.48,0,.39.21.72.25,1.09a.89.89,0,0,1,0,.36,2.68,2.68,0,0,0-.27,1.12c-.21.27,0,.62-.18.91a.36.36,0,0,0,.06.41c.05,0,0,.19,0,.35a.34.34,0,0,0,.06.09l-.4.78a12.34,12.34,0,0,1-.21,1.54.89.89,0,0,1-.21.41,2.42,2.42,0,0,0-.48.84,2.38,2.38,0,0,1-1.35,1.27.82.82,0,0,0-.2.12l-.75.68c-.48.41-1,.72-1.53,1.08a2.54,2.54,0,0,1-1.32.41,3.23,3.23,0,0,0-1.35.3c-.22.12-.47.22-.7.33l0,.13h-.76c-.43.31-.93.4-1.29.66a14,14,0,0,0-1.41.29,1.84,1.84,0,0,1-.78.15c-.33,0-.66,0-1,0a.79.79,0,0,0-.62.2h-.48l-.17.16a4.36,4.36,0,0,0-.55.14c-.38.14-.81,0-1.16.29a2.45,2.45,0,0,1-1.14-.11,1.1,1.1,0,0,0-.5-.08h-.35a2.07,2.07,0,0,0-1.13.16c0,.32,0,.69,0,1.06,0,.1.11.27.08.29s0,.16,0,.23a1.2,1.2,0,0,1-.09.5,1.34,1.34,0,0,0-.1.55,1.9,1.9,0,0,1-.13.38,9.71,9.71,0,0,0-1.31-.53c-.18-.06-.35-.17-.54-.24a4.12,4.12,0,0,1-1.16-.77c-.15-.11-.28-.26-.49-.26a.31.31,0,0,1-.12-.05c-.24-.1-.45-.29-.74-.24-.31-.21-.69-.23-1-.48a2.88,2.88,0,0,0-.76-.31,1.33,1.33,0,0,1-.49-.36c-.31-.32-.7-.55-1-.85a5.27,5.27,0,0,0-1.52-1,.36.36,0,0,1-.1-.11s0,0,0-.1.1-.12.18-.14c.25-.05.38-.34.66-.31a2.88,2.88,0,0,0,.43-.56,3.22,3.22,0,0,1,1.12-1.11,10.53,10.53,0,0,0,.95-.82,2.89,2.89,0,0,1,1-.66l.21-.09c.25-.13.58-.15.67-.5.36-.26.6-.65.94-.93l1.18-1c.45-.39.95-.71,1.42-1.07l.17.17c-.05.19-.22.37,0,.6a.32.32,0,0,1-.11.41l.1.15c.11.2-.1.36-.07.54s.17.34,0,.53a.13.13,0,0,0,0,.13c.12.39.06.82.21,1.19a1.92,1.92,0,0,1,.17.91c.31-.06.58-.32.88-.08.25,0,.52.09.76-.09.05,0,.16,0,.24,0a6.34,6.34,0,0,1,1.44.09,1.35,1.35,0,0,0,.65-.07c.63-.14,1.23-.4,1.87-.52a4.6,4.6,0,0,0,.68-.24,2.17,2.17,0,0,1,.59,0,6.61,6.61,0,0,0,1.09,0,4.77,4.77,0,0,0,.72-.26,1.28,1.28,0,0,0,.62-.42h.54a5.52,5.52,0,0,0,1.27-1,2.58,2.58,0,0,0,1-.49c.29-.19.5-.5.91-.55.21,0,.36-.28.61-.3,0,0,0,0,.07-.07a5.55,5.55,0,0,0,.74-1.71,1.34,1.34,0,0,1,.09-.26c-.28-.47.12-.84.18-1.31-.14-.17,0-.43-.09-.65a1.65,1.65,0,0,0-.26-.63c-.14-.16-.28-.34-.42-.51v-.5a3.92,3.92,0,0,1-.42-.4,4.78,4.78,0,0,0-.5-.32,4.19,4.19,0,0,1-.26-.33,2.15,2.15,0,0,0-.57-.51,4.35,4.35,0,0,1-1.14-.82,2.69,2.69,0,0,0-.41-.33,1.13,1.13,0,0,1-.6-.09,3,3,0,0,0-.9-.18,6.31,6.31,0,0,1-.86-.2.7.7,0,0,0-.29,0,1.45,1.45,0,0,1-.79-.25,6.25,6.25,0,0,0-.85-.45,8.75,8.75,0,0,0-.87-.27,2.86,2.86,0,0,0-.83,0l-.41-.28c-.2-.06-.42.08-.58-.08s-.28.11-.46,0a.81.81,0,0,0-.59,0,9.14,9.14,0,0,0-1-.33,4.49,4.49,0,0,0-.95-.21s-.07-.06-.11-.08l-.85-.46a.53.53,0,0,1-.15-.15,1.65,1.65,0,0,1-.82-.12.47.47,0,0,0-.17-.07,3.13,3.13,0,0,1-1.17-.27c-.27-.07-.5-.29-.8-.22a2.09,2.09,0,0,1-1-.88c-.42,0-.57-.49-1-.62a6.93,6.93,0,0,0-1-.39l-.38-.52-.76-.5-.27-.17a1.82,1.82,0,0,1-.71-.89c-.14-.29-.3-.56-.44-.85a1.92,1.92,0,0,1-.26-.93,1.15,1.15,0,0,0-.09-.29l.05-.09a.26.26,0,0,0,0-.31s0-.15,0-.23,0-.21-.09-.31a.91.91,0,0,1-.1-.4,4.9,4.9,0,0,0-.18-1.06,1,1,0,0,1,0-.75c0-.05,0-.13,0-.18s-.19-.29-.07-.49a2,2,0,0,0,.1-.56,3,3,0,0,0,.46-.84,8.87,8.87,0,0,0,.36-1c.05-.35.11-.69.17-1.05l.35-.48a6.4,6.4,0,0,1,.31-1.48,1,1,0,0,1,.2-.36,4.86,4.86,0,0,0,.57-1A3.48,3.48,0,0,1,151,19.36c.16-.13.35-.19.35-.44,0-.07.1-.13.16-.18l.91-.91a2.93,2.93,0,0,1,.34-.24,9,9,0,0,0,.8-.58,1,1,0,0,1,.68-.22,13,13,0,0,0,1.4-.13,7.69,7.69,0,0,0,.9-.2,1.9,1.9,0,0,0,.5-.27,1.79,1.79,0,0,1,.63.07.93.93,0,0,0,.71-.16,3,3,0,0,1,1.72-.18c.09,0,.12,0,.18,0a4.74,4.74,0,0,1,1.13,0,2.57,2.57,0,0,1,.66.17,2,2,0,0,0,.82.12c.47,0,.92-.14,1.39-.12s.92,0,1.38,0a1.51,1.51,0,0,1,.72.18,2.67,2.67,0,0,0,1.44.32c.2,0,.4,0,.59,0a1.25,1.25,0,0,0,.32-.08l.61.27a.17.17,0,0,0,.1,0c.32-.14.67,0,1-.11a1.15,1.15,0,0,1,.71,0,3.74,3.74,0,0,0,.95.11,3.84,3.84,0,0,1,1.7.41c.24.13.47,0,.75.11a4.33,4.33,0,0,0,.22,1.5,20,20,0,0,1,.08,2.18,1.18,1.18,0,0,1-.22.69,2.49,2.49,0,0,0-.49,1,1.7,1.7,0,0,1-.23.44c-.22-.05-.48.09-.71-.1-.31,0-.64-.09-.95.08a.41.41,0,0,1-.29,0c-.21-.07-.42-.18-.67-.29a.46.46,0,0,1-.2.09A8.16,8.16,0,0,0,170,23a1.72,1.72,0,0,1-.84-.09,2.28,2.28,0,0,0-1-.08,2.53,2.53,0,0,1-1-.21c-.3-.12-.57-.3-.93-.11-.12.07-.32,0-.58-.05a.46.46,0,0,1-.17.06c-.28,0-.57-.06-.85.1,0,0-.11,0-.17,0s-.23-.07-.26,0-.25.08-.37.08a4.56,4.56,0,0,1-.64,0,3.19,3.19,0,0,1-.56-.21,2.56,2.56,0,0,0-1.61-.09c-.18,0-.38,0-.55.1a.21.21,0,0,1-.19,0,.6.6,0,0,0-.55-.07,2.78,2.78,0,0,0-1.17.57h-.32a1.33,1.33,0,0,0-.63.15,3.49,3.49,0,0,1-1.34.45,1.79,1.79,0,0,0-.51.14,4.78,4.78,0,0,1-.6.51c-.14.08-.21.27-.32.4s-.3.25-.35.4-.32.25-.33.51-.17.32-.28.47a3.19,3.19,0,0,1-.33.4,2,2,0,0,0-.45.95A.74.74,0,0,0,153.4,28.06Z"/><path d="M44.78,25.49l.22-.42a2,2,0,0,1-.19-.56,6.18,6.18,0,0,0-.25-1c0-.09-.06-.2,0-.26a.91.91,0,0,0,.06-.75,5.63,5.63,0,0,1-.08-1.35.32.32,0,0,1,0-.09c.07-.18.23-.38.15-.56s0-.41-.1-.6a8.14,8.14,0,0,1-.19-1,7,7,0,0,0-.25-1.37,1.8,1.8,0,0,1,0-.61.94.94,0,0,0,.21-.8c0-.05.09-.11.12-.12a5.13,5.13,0,0,0,1-.31c.31-.09.6-.23.9-.34a.72.72,0,0,1,.55,0c.33.18.57,0,.84-.08a1.13,1.13,0,0,1,.18,0,1.59,1.59,0,0,0,.61-.09c.16-.07.38.05.55-.11a.17.17,0,0,1,.14,0c.16.16.37.06.55.11s.25.36,0,.55c.2.25,0,.56.14.83a1.31,1.31,0,0,1,0,.56c0,.07,0,.14-.06.22a4.29,4.29,0,0,1-.08.7,1.39,1.39,0,0,0,.1.74,6.43,6.43,0,0,1,.17.76,2.15,2.15,0,0,1,.1.8c.22.17,0,.48.2.65a4,4,0,0,1-.14,1.47s-.06.06,0,.08c.2.37-.12.73,0,1.1s.11.67.24,1c0,.11.09.28,0,.35a.4.4,0,0,0-.07.37,3.36,3.36,0,0,0,.28,1.11.94.94,0,0,1,.11.5,2.59,2.59,0,0,0,0,.88,4.44,4.44,0,0,1,.08,1.2c0,.23-.1.47-.09.7A5.26,5.26,0,0,0,51,31.19a2.89,2.89,0,0,1,.13.78,1.4,1.4,0,0,0,.11.5,1.88,1.88,0,0,1,0,1.34,1.13,1.13,0,0,0-.06.31c0,.35,0,.7,0,1a2.21,2.21,0,0,0,.25.89c0,.08,0,.18-.06.28s-.07.2-.1.29L51.7,38a.71.71,0,0,1,0,.14c0,.28,0,.56,0,.84s.07.53.09.8a5.8,5.8,0,0,1,0,.59c0,.17-.07.33-.1.5-.07.44.18.85.09,1.28a.81.81,0,0,1,.22.52c.09.37.11.76.23,1.13a2.13,2.13,0,0,1,0,1.32,3,3,0,0,0-.05,1.22c.09.29.12.6.24.89a.74.74,0,0,1,0,.61c-.06.11,0,.19,0,.31.18.41.22.88.42,1.3a.64.64,0,0,1,0,.24v.94c.23.24,0,.6.19.86a.25.25,0,0,1,0,.24c-.18.24,0,.54-.17.81a.57.57,0,0,0,.18.66,3.13,3.13,0,0,0,0,.53,2.26,2.26,0,0,0,.17.43c.07.19,0,.39.11.59s0,.53.13.74,0,.5.17.72a.28.28,0,0,1,0,.28c-.12.19-.07.4-.1.64L53.22,57a1.76,1.76,0,0,1-.37.08c-.25,0-.49,0-.74,0A6.68,6.68,0,0,1,51,57.2a1.47,1.47,0,0,1-1.18,0,1.16,1.16,0,0,0-.94.07.09.09,0,0,1-.1,0,.8.8,0,0,0-.61,0,3,3,0,0,1-.67,0l-.15-.15c0-.23-.08-.5.07-.76-.12-.19,0-.42-.09-.63a1.21,1.21,0,0,1,0-.86c0-.11,0-.23,0-.34s0-.32.09-.47,0-.21,0-.32a2,2,0,0,1-.13-.34,9.58,9.58,0,0,0-.22-1.19,1.22,1.22,0,0,0-.1-.45c-.07-.13.06-.33-.1-.45,0-.36-.09-.73.08-1.1a4.45,4.45,0,0,0,.11-1.68,7,7,0,0,0-.25-.73c0-.07-.07-.18,0-.23.25-.39,0-.76-.05-1.13a1.94,1.94,0,0,0-.25-.64c0-.21,0-.43,0-.64a7.33,7.33,0,0,0-.11-1.48,3.56,3.56,0,0,1,.11-.6c0-.19-.07-.39.09-.56s0-.22,0-.32-.14-.23-.13-.34c0-.45-.21-.85-.23-1.29a3.58,3.58,0,0,0-.09-.45c0-.16.06-.33-.1-.46,0-.36-.11-.73.09-1.09a1.67,1.67,0,0,0,.08-.49L46.09,38a1.66,1.66,0,0,0,.06-1c-.07-.33-.19-.64-.3-1a6.63,6.63,0,0,0-1.09,0l-.67.14a2.91,2.91,0,0,1-1.06,0,1.11,1.11,0,0,0-1,.16H41.6l-.17.16a6.05,6.05,0,0,0-1.45.43,3,3,0,0,1-.89,0c-.32-.1-.63,0-1-.1a2,2,0,0,0,.13,1.12.46.46,0,0,1,0,.26.84.84,0,0,0,0,.64,9,9,0,0,1,.24.89.35.35,0,0,0,.1.13c0,.23.07.49-.11.74a.3.3,0,0,1,.07.11,5.83,5.83,0,0,1,0,1.38,3.86,3.86,0,0,0,0,.76,1.92,1.92,0,0,1,0,.32,1.77,1.77,0,0,0,.1.65,2.92,2.92,0,0,1,.19,1c0,.17.09.29.11.45a4.37,4.37,0,0,1,.09.5,1.18,1.18,0,0,1-.1.45,2.17,2.17,0,0,0-.09.8,1.35,1.35,0,0,1-.08.24,1.32,1.32,0,0,1,.07.42,2.05,2.05,0,0,0,.12.74,1,1,0,0,1,0,.77.47.47,0,0,0,0,.26c.14.41.28.81.41,1.21a1,1,0,0,1,0,.34,4,4,0,0,0,0,1,4.41,4.41,0,0,1,.07,1.2c0,.18-.09.36-.08.55s.06.66.09,1c.2.14,0,.37.13.54a1.37,1.37,0,0,1,.16.52,2.43,2.43,0,0,0,.1.55.66.66,0,0,1,0,.2,1.57,1.57,0,0,1-.21.12,4.06,4.06,0,0,0-.73.28,1.46,1.46,0,0,1-.8.22c-.15,0-.28.22-.47,0s-.34,0-.5-.1-.22,0-.33,0H35.49l-.34-1a1.49,1.49,0,0,0,0-1.06,3.55,3.55,0,0,0-.4-1c.08-.17.18-.33,0-.52a.39.39,0,0,1,0-.28.6.6,0,0,0,0-.51,5.72,5.72,0,0,1-.08-1.49c.14-.13.09-.29.09-.45a.78.78,0,0,0-.13-.59s-.06,0-.06-.07c.08-.39-.14-.73-.21-1.1a4.47,4.47,0,0,0-.24-1.13c-.06-.1,0-.25-.05-.37a2.11,2.11,0,0,0-.08-.32,3,3,0,0,0,.18-.84c0-.18,0-.35,0-.52s0-.33,0-.49a1.87,1.87,0,0,0-.29-1c.3-.78-.18-1.41-.38-2.13a1.29,1.29,0,0,0,.05-.93A4.91,4.91,0,0,1,33.35,40a1.08,1.08,0,0,1,0-.19l.16-.52a2.06,2.06,0,0,1-.2-.86.83.83,0,0,0-.19-.46,1,1,0,0,0,0-.34c-.14-.32-.12-.66-.23-1a2.42,2.42,0,0,1-.06-.47,1.48,1.48,0,0,1,0-.73,1.75,1.75,0,0,0,.05-.33c0-.16-.08-.36.1-.5v0c-.19-.49,0-1.08-.36-1.48,0-.13,0-.23.06-.33s.07-.17.08-.22c-.13-.41-.25-.78-.38-1.16a2,2,0,0,1-.1-.6c0-.54-.06-1.09-.1-1.63,0-.06-.06-.11-.1-.17a2.32,2.32,0,0,0,.06-1.72A9.47,9.47,0,0,1,32,26.13a4.84,4.84,0,0,0-.26-1.22c-.13-.28.1-.58.08-.88.16-.11.09-.27.1-.41s0-.33,0-.49a1.93,1.93,0,0,0-.31-1.33,2,2,0,0,0-.16-1.6c0-.07-.1-.14-.1-.2s-.17-.3,0-.46c-.05-.31.1-.64-.1-.94.07-.29-.13-.56-.09-.85s.08-.61.16-.91a.61.61,0,0,0-.1-.67l.18-.19a1,1,0,0,0,.65-.14c.14-.11.32-.07.49-.13s.36-.05.54-.12a4,4,0,0,1,1.24-.1h1.24l.1.77a.77.77,0,0,0-.06.23c0,.14,0,.3,0,.44a.66.66,0,0,0,0,.37,1,1,0,0,1,0,.39,1.61,1.61,0,0,0,0,.44c.1.37.08.78.38,1.06L35.8,20l.6,1.48-.07.12a1.21,1.21,0,0,1,.07.43,2.94,2.94,0,0,0,.12.89,2.52,2.52,0,0,1,0,1.25,3.42,3.42,0,0,0,0,.64,1,1,0,0,1,.2.61.57.57,0,0,0,.19.51,1.1,1.1,0,0,0,.29.88,1.1,1.1,0,0,1-.08.59c-.06.19.07.41-.09.61a.31.31,0,0,0,0,.31c.11.15-.1.21,0,.34s0,.22,0,.34a1.38,1.38,0,0,0,.13.22c.28.1.56-.06.84-.13.11,0,.19-.07.3,0a.74.74,0,0,0,.6,0,4,4,0,0,0,1-.33c.09-.07.25,0,.38,0a1.5,1.5,0,0,1,.43,0c.16,0,.28-.07.43-.05s.27-.09.4-.08a2.27,2.27,0,0,1,.64.12,1.11,1.11,0,0,0,.74,0,3,3,0,0,1,.53,0,.67.67,0,0,1,.55-.18,1.87,1.87,0,0,0,.76-.23c0-.48.36-.91.3-1.39A4.24,4.24,0,0,0,44.78,25.49Z"/><path d="M116.88,48.54a2.13,2.13,0,0,1-.06.65c-.09.21,0,.43-.13.64a1.76,1.76,0,0,0-.34.65,9.53,9.53,0,0,0-.77,1.11,3,3,0,0,1-.41.39,4.09,4.09,0,0,0-.75.54c-.25.31-.55.58-.8.9-.06.08-.1.22-.19.25-.32.13-.46.48-.79.61a2.42,2.42,0,0,0-.58.38,1,1,0,0,1-.82.27,7.22,7.22,0,0,0-1.14.11,3.7,3.7,0,0,0-1.07.29c-.12.05-.24.13-.39.21-.51-.28-1,0-1.52.11a3.57,3.57,0,0,0-.56.26,1.59,1.59,0,0,0-.46-.08c-.24,0-.47-.09-.72,0a3.55,3.55,0,0,1-.73,0,1.72,1.72,0,0,1-.77-.19,1.71,1.71,0,0,0-.95-.21,1.13,1.13,0,0,1-.58,0c-.19-.09-.31.07-.47,0-.36-.09-.73-.15-1.09-.23l-.67-.17a1,1,0,0,1-.53-.3c-.12-.15-.31-.21-.41-.41a1.5,1.5,0,0,0-.53-.46,5.57,5.57,0,0,0-1-.7c-.14-.06-.32-.08-.41-.19a2.39,2.39,0,0,1-.31-.57,1.26,1.26,0,0,1-.35-.17,3.63,3.63,0,0,0-.9-.7s-.06-.1-.1-.15a2.25,2.25,0,0,0-.38-.63s0-.13,0-.21a2.41,2.41,0,0,1-.64-1,2.13,2.13,0,0,1-.13-1.16l-.31-.59a1.1,1.1,0,0,0-.15-.62,1.86,1.86,0,0,1-.23-.78,3.54,3.54,0,0,0-.17-.58,1.75,1.75,0,0,1-.05-1.23,3.48,3.48,0,0,0,0-.79c0-.23.09-.49-.1-.7a1.85,1.85,0,0,0-.29-.91,1.11,1.11,0,0,0,.06-.78,1.81,1.81,0,0,0-.18-.57,1.33,1.33,0,0,1-.2-.51,1.53,1.53,0,0,1-.08-.26,4.62,4.62,0,0,0-.11-1.39,2.09,2.09,0,0,1-.07-.89,3.09,3.09,0,0,0,.08-.61,3.84,3.84,0,0,0-.19-1,5.5,5.5,0,0,1-.3-1.45.25.25,0,0,0,0-.13,2,2,0,0,1-.16-1.07.58.58,0,0,1,0-.19,3.2,3.2,0,0,1,.16-.39.38.38,0,0,1,0-.42.66.66,0,0,0,.06-.27c0-.25-.09-.49-.11-.75a2.28,2.28,0,0,0-.28-.69c.15-.12.11-.3.1-.47a5.28,5.28,0,0,0-.47-1.54.54.54,0,0,0,.07-.19,1.78,1.78,0,0,0,0-.73c-.11-.22,0-.49-.18-.67,0,0,0,0,0-.05a10.61,10.61,0,0,1,.18-1.48l-.18-.37a1.62,1.62,0,0,0-.17-.92c-.09-.18,0-.4-.11-.6s0-.4-.12-.59a2.32,2.32,0,0,1-.09-.94,3.76,3.76,0,0,1,.1-.6c0-.19-.09-.4.09-.56,0,0,0-.06,0-.09-.14-.51,0-1.07-.39-1.49,0-.13.07-.23.1-.33s0-.17.06-.24A8.18,8.18,0,0,0,90.4,18a2.88,2.88,0,0,1-.19-1.3c0-.35-.14-.68-.1-1,.06-.64.08-1.29.12-1.94l.66-.16.14-.14,0,0a6.26,6.26,0,0,0,1.14-.09,2,2,0,0,1,1,.09,10.11,10.11,0,0,0,1.1.19,1.81,1.81,0,0,1,.89.48.67.67,0,0,0-.06.12,5.59,5.59,0,0,0,0,1.78c0,.21.15.4.2.61a1,1,0,0,1-.06.8l.46,1.27a.85.85,0,0,1,0,.23c0,.23,0,.46,0,.69a2.85,2.85,0,0,0,.11.65,2.23,2.23,0,0,1,.08,1,5.62,5.62,0,0,0-.1.7,5.79,5.79,0,0,0,.24,1.24c.06.22.1.45.17.67.11.37.11.76.23,1.13a1.63,1.63,0,0,1,0,.85c0,.12,0,.3-.06.36s0,.19,0,.27,0,.07,0,.1a2,2,0,0,0-.09.41c0,.11.1.24.08.35a1.39,1.39,0,0,0,.22.85.37.37,0,0,1,0,.38,1.3,1.3,0,0,0,.12,1A3.13,3.13,0,0,1,97.13,31a3.51,3.51,0,0,0,.17,1.06,1,1,0,0,1,0,.49c0,.11-.17.21,0,.31-.14.09-.1.23-.1.35s0,.27,0,.4.08.27.1.4.06.24.08.36a6,6,0,0,1,.32,1.45.58.58,0,0,0,.06.17,2.53,2.53,0,0,1,.07,1.3,3.64,3.64,0,0,0,.34,2.38s-.08.11-.08.16a2.38,2.38,0,0,0,.28,1.22,1.52,1.52,0,0,1,.22.85.33.33,0,0,0,.09.35,1.12,1.12,0,0,0,.1.76,2.71,2.71,0,0,1,.1.9c0,.29,0,.59,0,.86a1.43,1.43,0,0,1,.19.29,13.19,13.19,0,0,0,.9,1.65.64.64,0,0,0,.13.19,1.5,1.5,0,0,1,.38.74,2.46,2.46,0,0,0,.73,1.27,1.4,1.4,0,0,0,.59.35.46.46,0,0,1,.37.3c0,.09.14.14.19.2.3.05.58.09.85.16.07,0,.09,0,.14,0a.87.87,0,0,1,.36,0l.71.2s.09,0,.14,0a5,5,0,0,1,1.22,0c.3.07.57,0,.81.07A2.17,2.17,0,0,1,107,50a6.94,6.94,0,0,0,1.47-.85c.15-.11.24-.3.43-.37s.27-.14.41-.21.28-.13.41-.21a4.15,4.15,0,0,0,.34-.24,2.1,2.1,0,0,0,.7-1.3c.09-.09.19-.17.28-.27a.93.93,0,0,0,.19-.31,1.68,1.68,0,0,0,0-.5c0-.12.23-.23,0-.36,0-.11.2-.22,0-.3l.16-.15a1.78,1.78,0,0,0,.13-.44c0-.15.17-.29,0-.45a.61.61,0,0,0,.1-.45,1.73,1.73,0,0,1,.2-.86,2.18,2.18,0,0,0,.19-.56,2.41,2.41,0,0,0-.09-.59c0-.19,0-.37-.08-.57s0-.42-.11-.64a1.93,1.93,0,0,1,0-.54c0-.17-.07-.33-.1-.5a3,3,0,0,1,.22-1.19l0,0c0-.59,0-1.17,0-1.75a1.5,1.5,0,0,1,0-.73.62.62,0,0,0,0-.33c-.09-.33-.11-.68-.22-1a1.24,1.24,0,0,1-.06-.37c0-.23,0-.46,0-.69.24-.19,0-.37,0-.56s0-.46,0-.69a10.52,10.52,0,0,1,.25-1.08.5.5,0,0,1,.05-.13s0,0,0-.05c-.2-.24,0-.55-.15-.82a1.41,1.41,0,0,1-.14-.78c0-.24-.11-.43-.11-.65a1.32,1.32,0,0,0-.08-.61c-.11-.24,0-.52.11-.78s.14-.27.17-.42a8.93,8.93,0,0,0,.09-1,1.8,1.8,0,0,0-.09-.45c0-.14,0-.28-.06-.42a.69.69,0,0,1,0-.43,3.05,3.05,0,0,0,.08-.5,4.37,4.37,0,0,1-.09-.5c0-.33-.21-.62-.2-1-.15-.15,0-.3,0-.46,0-.59,0-1.18,0-1.77a1.59,1.59,0,0,1,.14-.73.54.54,0,0,0,.05-.42,2.4,2.4,0,0,1-.09-.8c0-.15-.07-.3-.09-.45s0-.28-.1-.41,0-.16,0-.24c0-.46-.07-.93-.11-1.39,0-.05-.06-.1-.08-.15l.33-1h.33a8,8,0,0,0,2.12-.36.31.31,0,0,1,.23,0,1.94,1.94,0,0,0,1.11.18h.84a1.71,1.71,0,0,1,.27,1,2.65,2.65,0,0,0,0,.89,7,7,0,0,1,.08,1.44c0,.29-.14.55-.11.85a2.6,2.6,0,0,1,.09,1.07c.19.17.18.38.23.58.13.49,0,1,.27,1.51.06.11,0,.28,0,.42a.77.77,0,0,1-.11.3c-.15.26,0,.54-.09.8a1,1,0,0,0,0,.74c.08.25,0,.55.22.8,0,0,0,.15,0,.22a2.44,2.44,0,0,0-.13.44,1.45,1.45,0,0,0,.12.37l.24,1a.75.75,0,0,0,.1.17,1.91,1.91,0,0,0-.05,1.11,3.82,3.82,0,0,1,0,1.39c0,.32-.28.64-.06,1,0,.07,0,.19,0,.29a1.76,1.76,0,0,0,.09.5,5,5,0,0,1,.21,1.15c0,.27.07.53.1.8a2.24,2.24,0,0,1-.17.92s0,0,0,0c.06.29-.1.56-.1.85a3.26,3.26,0,0,0,.17,1.11,1.35,1.35,0,0,1,0,.56c0,.12-.07.27,0,.37a10,10,0,0,0,.28,1.11c0,.08.11.2.08.25-.16.25,0,.55-.1.79s0,.13,0,.18a7.1,7.1,0,0,1,0,1.13,4.42,4.42,0,0,1-.22.79c0,.14-.1.32,0,.41a1.64,1.64,0,0,1,.09.61,4.86,4.86,0,0,0,.1.55c0,.19-.08.39.08.56s0,.16,0,.24,0,.43,0,.64a2.24,2.24,0,0,1-.18,1.16,2.87,2.87,0,0,0-.21.85,4,4,0,0,0-.1.5c0,.14,0,.3,0,.44s.18.21,0,.31c.19.17.08.29,0,.45A2.87,2.87,0,0,0,116.88,48.54Z"/><path d="M121.11,28.36a2.76,2.76,0,0,0,.49-1.43.48.48,0,0,1,0-.18.39.39,0,0,0,0-.41,1.33,1.33,0,0,1,.06-1.09c0-.07.08-.19,0-.22s-.09-.38-.08-.56-.09-.29-.11-.45a3.94,3.94,0,0,1,.15-1c0-.07.07-.16,0-.22-.13-.32.06-.63,0-.95a1.08,1.08,0,0,1,.09-.46,2.54,2.54,0,0,0,.1-1.7,2.74,2.74,0,0,1,0-.64,6.5,6.5,0,0,0-.11-1.24,3.4,3.4,0,0,1,.12-.65c0-.12.17-.24.18-.36,0-.34.13-.65.12-1a2.21,2.21,0,0,0-.13-.74c-.15-.33,0-.56.12-.83,0-.06-.1-.13-.1-.19a4.54,4.54,0,0,0-.25-1.09.56.56,0,0,1,0-.36,1.25,1.25,0,0,0,.06-.76,3.15,3.15,0,0,1,0-1.4c.07-.35.09-.72.13-1.1l.11-.1h.4l.15-.16c.42-.1.8-.17,1.17-.29a.82.82,0,0,1,.27-.06c.46,0,.92,0,1.38,0a2.79,2.79,0,0,1,1,.32,2.84,2.84,0,0,1,.53.4s-.06.05-.06.08A6.76,6.76,0,0,0,127,11.1a1.83,1.83,0,0,0,.16.68.39.39,0,0,1,0,.28c-.24.42,0,.83,0,1.24a3.94,3.94,0,0,1,.16.92c0,.24-.07.46-.09.7a2.82,2.82,0,0,0,.09.64,2.83,2.83,0,0,1-.24,1.29.61.61,0,0,0,0,.45.74.74,0,0,1,.08.47,2.75,2.75,0,0,0,.1.7c0,.21-.08.45.1.65a13.46,13.46,0,0,1,0,1.42,3.94,3.94,0,0,1-.2.61,3,3,0,0,0-.08.51,2.75,2.75,0,0,0-.09.5c0,.25.16.48.09.75.24.22,0,.44,0,.64a.56.56,0,0,0,0,.34,5.47,5.47,0,0,1,.14.68c.05.18.11.35.17.56a.4.4,0,0,0-.07.16c0,.22,0,.45-.09.65,0,0,0,.13,0,.2.2.9.1.72-.11,1.6a1.7,1.7,0,0,0-.08.55,3.58,3.58,0,0,0,.09.35c0,.11-.1.21-.09.31a3.16,3.16,0,0,0,.13.53c0,.05.06.09.06.13,0,.24,0,.49,0,.74s.06.43.09.65a1.27,1.27,0,0,1-.1.64c0,.15-.19.28-.18.42s-.11.39-.11.6v1.08s0,.08,0,.1c.24.32,0,.58-.08.93,0,0,0,0,0,.06,0,.56.38,1.1.23,1.67a12.23,12.23,0,0,0-.1,1.72l-.29.54c.18.21,0,.48.12.69s0,.45.1.65a2.41,2.41,0,0,1,.09.72h.61a1.33,1.33,0,0,0,1,.4,2.6,2.6,0,0,0,1-.08.59.59,0,0,1,.58.17c.21,0,.44,0,.57-.09s.42,0,.59-.14.35,0,.53.05.39,0,.55.1a1.22,1.22,0,0,1,.88-.06c.39.1.77.21,1.14.34a.49.49,0,0,0,.37,0,.58.58,0,0,1,.62,0l.47-.08c.16,0,.33,0,.51-.07s.29,0,.53,0a.46.46,0,0,1,.17-.06,2.26,2.26,0,0,1,1.24.22,2,2,0,0,0,1.12.27,2.88,2.88,0,0,0,1.05-.08c.11-.05.3,0,.44.09a1.37,1.37,0,0,0,.87,0c.34-.05.69-.28,1,0,.45,0,.88.15,1.34.11a1.58,1.58,0,0,1,1,.18,1.82,1.82,0,0,0,.65.2,8.18,8.18,0,0,0,1,0,3.67,3.67,0,0,0,.52-.08l.09.08s.06-.08.1-.09.29.09.47,0,.3,0,.45.07a1.4,1.4,0,0,0,.56-.06c.05.25.11.52.14.79a3.13,3.13,0,0,1-.21,1,2.09,2.09,0,0,0-.08.36v1.48a.53.53,0,0,0,.06.32.48.48,0,0,1,0,.37,2.83,2.83,0,0,0,0,1.5c.15.15,0,.38.11.49s-.07.27,0,.43a1,1,0,0,1-.06.5,4.56,4.56,0,0,0,0,1c-.15,0-.28.08-.41.1s-.34.09-.42,0-.45,0-.6-.1a.78.78,0,0,0-.57-.07,4.31,4.31,0,0,0-1.37.25s-.06,0-.08,0c-.33-.06-.63.13-.95.1a2.34,2.34,0,0,0-.83.15.78.78,0,0,1-.6,0,4.05,4.05,0,0,0-1.92-.24c-.07,0-.14.1-.2.09-.26,0-.47.17-.77,0s-.65,0-1,.13-.48.11-.71.2-.26,0-.39-.06h-1.38a3,3,0,0,1-1.11-.18.48.48,0,0,0-.29,0,5.55,5.55,0,0,1-.79.11,6.47,6.47,0,0,0-.8.1c-.38.15-.79,0-1.16.17s-.5,0-.74-.11a4.37,4.37,0,0,0-1.76-.28,1.89,1.89,0,0,0-.44.12.51.51,0,0,1-.52,0c-.32-.18-.63,0-.94,0s-.38.13-.58.15a2,2,0,0,1-.78,0,3.48,3.48,0,0,0-1.2-.08,3.93,3.93,0,0,1-1.28-.24c-.11,0-.24-.1-.32-.06-.26.15-.54.06-.8.1l-.6.09a2.71,2.71,0,0,0-.64,0,9.65,9.65,0,0,1-1.84.09L120,51c0-.17,0-.33.08-.48s.08-.33.1-.5,0-.32.1-.45a5.88,5.88,0,0,0-.08-1.25,1.42,1.42,0,0,1,0-.76,1.88,1.88,0,0,0,0-.85,2.82,2.82,0,0,0-.23-.94c.21-.23,0-.54.16-.81s0-.42,0-.63a3.27,3.27,0,0,1,.24-1.38c0-.13.1-.32,0-.41s-.06-.44-.08-.66c0-.38-.08-.76-.1-1.14s0-.76,0-1.13a.73.73,0,0,1,.09-.41,2.61,2.61,0,0,0,.31-1.16c0-.12,0-.25.07-.36a.24.24,0,0,0,0-.23,1.21,1.21,0,0,1-.1-.56c0-.05-.07-.1-.1-.14a1.68,1.68,0,0,0,.13-1.33c-.08-.22,0-.48-.12-.69.19-.18,0-.45.13-.63a.47.47,0,0,0,.06-.32,5.44,5.44,0,0,1,0-1,6.66,6.66,0,0,1,.31-.85.6.6,0,0,0,0-.61.86.86,0,0,0,.06-.7,1.7,1.7,0,0,1-.06-.31Z"/><path d="M143,35.35c-.13.23-.08.53-.28.73.06.28-.16.55-.08.79a3.59,3.59,0,0,1,.08.79,7.24,7.24,0,0,0-.83.1c-.28.09-.57-.09-.86-.14-.1,0-.22-.07-.28,0a1.21,1.21,0,0,1-.75.08,3.84,3.84,0,0,0-.51.1,3.66,3.66,0,0,1-.92-.14l-.23-.05a5.63,5.63,0,0,1-1.46-.28,1,1,0,0,1-.33-.21h-.3l-.19-.2a2.57,2.57,0,0,1-.68,0l-.62-.17a3.54,3.54,0,0,0-.93,0,4.69,4.69,0,0,0,0-.53,3.89,3.89,0,0,0-.14-.83,1.55,1.55,0,0,1,0-.85,3.58,3.58,0,0,0,.18-1c0-.09.07-.18.08-.27a3.79,3.79,0,0,0-.27-1.74,2.58,2.58,0,0,0,.17-.61,2.67,2.67,0,0,0-.14-.67,2.06,2.06,0,0,0-.24-.75.25.25,0,0,1,0-.19,2.39,2.39,0,0,0,0-1.3,2.24,2.24,0,0,1,.15-1.22,5,5,0,0,1,.12-.49c0-.08-.08-.23-.08-.34a3.31,3.31,0,0,0-.2-1.21s0,0,0,0c0-.6-.07-1.19-.1-1.79a.89.89,0,0,1,.08-.31,2.48,2.48,0,0,0,.22-.9c0-.33,0-.65,0-1a1.53,1.53,0,0,0-.07-.51,1,1,0,0,1,.19-.82s-.11-.09-.1-.14c0-.4-.21-.75-.21-1.15a5.2,5.2,0,0,1,.05-.88.72.72,0,0,0,0-.32,2.64,2.64,0,0,1,0-1c0-.46.31-.87.22-1.35,0-.1.07-.23.12-.37h.53a15.62,15.62,0,0,0,1.68-.09h1.71a2.1,2.1,0,0,0,.49.29c.19.06.38.12.57.2a3,3,0,0,0,.54.11,2.13,2.13,0,0,0,.55.1,1.53,1.53,0,0,1,.64,0c.19.07.35-.12.6.07l.56.26a7.48,7.48,0,0,0,.39,1.31,1.34,1.34,0,0,0-.09.31c0,.36-.1.74.1,1.09a6.42,6.42,0,0,1-.08,1.15,2.18,2.18,0,0,0-.1.84,7.8,7.8,0,0,0,.2,1.44c0,.06.07.11.07.17,0,.33.07.66.11,1,0,.14.07.27.09.4a2.1,2.1,0,0,1-.11.94,1.55,1.55,0,0,0-.08.51c0,.32-.17.62-.1.95a2.47,2.47,0,0,0,.29,1.06,2.52,2.52,0,0,0-.18.65,2.77,2.77,0,0,0,.15.68,4,4,0,0,1,.23,1.43c0,.12.06.26-.08.36a.1.1,0,0,0,0,.09c.2.37.07.76.1,1.14a1.55,1.55,0,0,1-.16.92.37.37,0,0,0,0,.23c0,.16.06.31.09.46s0,.27.07.42.06.38.11.58a9.4,9.4,0,0,1,.12,1.19,4.51,4.51,0,0,1,.1.9S143,35.33,143,35.35Z"/><path d="M132,8.19a2.56,2.56,0,0,1-.4-1.18c0-.11-.11-.21-.1-.35,0-.46,0-.92,0-1.38a4.42,4.42,0,0,1,.22-.79,5.34,5.34,0,0,0,1.17-1.94,1.16,1.16,0,0,1,.85-.87s0-.1,0-.12a5.08,5.08,0,0,1,1-.92.69.69,0,0,1,.34-.14c.27,0,.51-.23.8-.2.27-.22.62-.17.92-.27a.77.77,0,0,1,.63.1c.19.13.39,0,.55.12s.31,0,.48,0,.27.05.4.09.47.07.7.11a2.43,2.43,0,0,1,.62.28,3.89,3.89,0,0,1,1.22,1.09.5.5,0,0,1,0,.13,3.86,3.86,0,0,1,.12.59,2.69,2.69,0,0,0,.2.51,4.89,4.89,0,0,0,.67,1.41,3.81,3.81,0,0,1,0,.48,2.71,2.71,0,0,0,.1.75c0,.24-.05.5.09.75,0,.1,0,.28-.05.41-.14.52-.31,1-.42,1.55a1,1,0,0,1-.27.53c-.23.22-.42.48-.63.72s-.13.37-.29.52-.3.44-.48.64a2.48,2.48,0,0,1-.59.48,4.53,4.53,0,0,1-1.21.64,1,1,0,0,1-.23,0l-.4-.09c-.14,0-.29,0-.41-.1s-.16,0-.24,0h-1.28c-.07,0-.15,0-.2,0-.38.26-.63-.07-1-.2a1.45,1.45,0,0,1-.58-.15,4.73,4.73,0,0,0-.78-.24.55.55,0,0,1-.29-.2c-.29-.31-.46-.71-.75-1a2.09,2.09,0,0,1-.43-.9A3,3,0,0,1,132,8.19Z"/><path d="M66.87,40.15a1.06,1.06,0,0,1-.82-.22.73.73,0,0,1,.09-.62c.18-.16.45-.14.64-.34a1.06,1.06,0,0,1,.59-.34c.23,0,.43-.23.65-.32a1.44,1.44,0,0,1,.41-.05l.35.34V39l-.51.5a4.35,4.35,0,0,1,.44,1.19l1.08.81a5.36,5.36,0,0,1,.49-.62.46.46,0,0,1,.59-.12l.16.07c.26.39.09.79,0,1.2l.34.25c-.06,0,0,0,0,0,.37-.07.72.13,1.09.1a1.53,1.53,0,0,0,.35-.19.89.89,0,0,0,.6-.14.35.35,0,0,1,.22-.06.77.77,0,0,0,.45-.13l-.36-.61v-.5l.39-.34c.34-.06.56.21.74.39l.19.51,1.34-1.57.13-1L76,38.32l.11-.64.65-.13v.08a1.53,1.53,0,0,0,.48.14,3.42,3.42,0,0,1,1.14.24l.42.1.29.42c-.09.23-.11.49-.37.63H78a.6.6,0,0,0-.08.08,3.61,3.61,0,0,0-.16.42c0,.14-.25.18-.2.36-.29.31-.27.8-.61,1.08a.21.21,0,0,0-.08.11c-.18.55-.7.79-1,1.19,0,0-.08,0-.13,0l.29.7-.33.47H75.2c-.35-.13-.47-.42-.64-.7-.28.05-.48.29-.8.31a2.14,2.14,0,0,0-.77.29h-.73a2.66,2.66,0,0,1-.49,0c-.15,0-.28-.13-.43-.15s-.48,0-.76-.06l0,.28-.38.33h-.46l-.34-.38.13-.77a4.28,4.28,0,0,1-.46-.13,2.43,2.43,0,0,1-1.17-1.07c-.18-.34-.48-.6-.67-.94A3,3,0,0,0,66.87,40.15Z"/><path d="M75.79,34.39c-.18,0-.31.11-.44.13a3.84,3.84,0,0,1-.48,0,4.5,4.5,0,0,0-.64-.38.44.44,0,0,1-.28-.35c0-.44-.32-.83-.19-1.34a5,5,0,0,0,.31-.5.67.67,0,0,1,.43-.36c.3-.05.58-.22.93-.07a1.29,1.29,0,0,1,.88.8,2.27,2.27,0,0,0,.21.41.44.44,0,0,1,0,.49A3.7,3.7,0,0,1,75.79,34.39Z"/><path d="M67.86,34.72l-.64-.5,0-.25L67,33.8a1.74,1.74,0,0,1,.63-1.64h.1A2.52,2.52,0,0,1,68.3,32a3.28,3.28,0,0,1,.62,0s.1,0,.13,0c.28.21.63.35.8.69a1.51,1.51,0,0,1,.05,1.09,2,2,0,0,0,0,.2,1.63,1.63,0,0,1-1.52.66Z"/><path d="M72,35.12h.45l.14.14v.2a2.28,2.28,0,0,1,.59.88,8.46,8.46,0,0,1,.51,1l-.31.17.06.09a4,4,0,0,0-.92,0,6.66,6.66,0,0,1-.76.06c-.14-.17-.33-.07-.52-.1l-.2-.31c.16-.38.31-.75.47-1.11S71.78,35.48,72,35.12Z"/></g></g></svg>