<svg xmlns="http://www.w3.org/2000/svg" viewBox="0 0 101.99 50"><defs><style>.cls-1{fill:#ad3720;}.cls-2{fill:#141224;}</style></defs><g id="Layer_2" data-name="Layer 2"><g id="Layer_1-2" data-name="Layer 1"><path class="cls-1" d="M0,25.61V24.3c.53-.49,1.18-1,1.78-1.65.8-.82,1.53-1.72,2.37-2.5a5,5,0,0,0,1.46-2.08,2,2,0,0,1,1.5-1.35,3.7,3.7,0,0,0,2.1-1.59c.63-.83,1.36-1.58,2-2.44a3.1,3.1,0,0,1,1.62-.93A5.53,5.53,0,0,0,14,11.12c.56-.42,1.17-.77,1.74-1.17a3.91,3.91,0,0,0,.85-.71A4.64,4.64,0,0,1,18.7,7.79a9.66,9.66,0,0,0,2.43-1.35,4.26,4.26,0,0,1,1.53-.69A33.53,33.53,0,0,1,26.24,5a1.85,1.85,0,0,0,1.08-.48,5.94,5.94,0,0,1,2.93-1.4,5.27,5.27,0,0,0,1.42-.41,9.94,9.94,0,0,1,2.93-.9,4.94,4.94,0,0,1,2.65-.15,2.38,2.38,0,0,0,1.69-.11,7.31,7.31,0,0,1,1.73-.43A3.13,3.13,0,0,0,41.79.7,3,3,0,0,1,43.5.23c.29,0,.58-.15.88-.16a5.23,5.23,0,0,1,2.47.29,4.33,4.33,0,0,0,1.87.3A11.17,11.17,0,0,0,51.93.44a7.87,7.87,0,0,1,1.8-.19,1.18,1.18,0,0,0,.5,0,2.11,2.11,0,0,1,2,.09A11.58,11.58,0,0,0,59,1.06a6.47,6.47,0,0,0,2.4.21,4.37,4.37,0,0,1,2.6.59,5.54,5.54,0,0,0,2.08.61,34.38,34.38,0,0,1,4.16,1c2,.47,4,1,6,1.54a4.82,4.82,0,0,1,1.54.66,15,15,0,0,0,2.87,1.61A19.58,19.58,0,0,1,83.21,9a12.56,12.56,0,0,0,3.12,1.53,4.34,4.34,0,0,0,.87.18,2.16,2.16,0,0,1,1.64.86c.43.51.87,1,1.33,1.52A10.57,10.57,0,0,0,92,14.81a26.29,26.29,0,0,1,3.76,3.38l3.55,3.35a4.57,4.57,0,0,0,.57.41A5.79,5.79,0,0,1,102,24.19V26a6.69,6.69,0,0,1-2.21,2.31,5.11,5.11,0,0,0-.91.89,27.47,27.47,0,0,0-2.49,3.28,1.5,1.5,0,0,1-.94.7,10.11,10.11,0,0,0-3.17,1.85A20.35,20.35,0,0,0,89,38.29a8.63,8.63,0,0,1-3.47,2.51,1.93,1.93,0,0,1-.47.13,3.42,3.42,0,0,0-1.76.66A16.79,16.79,0,0,1,80,43.38c-.64.27-1.21.68-1.83,1s-1.06.53-1.61.76a.76.76,0,0,1-.58.06,1.74,1.74,0,0,0-1.8.24,26.71,26.71,0,0,0-3.41,1.84,2.92,2.92,0,0,1-1.4.44c-1.25.19-2.46.62-3.75.2-.25-.08-.58.12-.87.16a17.92,17.92,0,0,0-1.79.25,3.13,3.13,0,0,0-1.34.59,2.56,2.56,0,0,1-2.67.57,3,3,0,0,0-2.42.15,4,4,0,0,1-2.68.24,7.78,7.78,0,0,0-2.68,0,8.89,8.89,0,0,1-1.71,0c-.23,0-.45-.1-.68-.1a10.23,10.23,0,0,1-2.57-.37,10.34,10.34,0,0,0-3.51-.24,4,4,0,0,0-1.52.44A1.3,1.3,0,0,1,40,49.51a1.32,1.32,0,0,1-.44-.23,2.76,2.76,0,0,0-2.85-.42,2.31,2.31,0,0,1-2.05-.56c-.27-.19-.53-.41-.81-.58a1.69,1.69,0,0,0-1.46-.18,2.16,2.16,0,0,1-2.07-.36c-1.09-.75-2.36-1.07-3.49-1.71a2.52,2.52,0,0,0-1.37-.21A3.31,3.31,0,0,1,23,44.4a4.68,4.68,0,0,0-1-.63,30.89,30.89,0,0,0-3.73-1.62,3.13,3.13,0,0,1-1.07-.71,23.53,23.53,0,0,1-1.74-1.72A12.54,12.54,0,0,0,13,37.86c-.75-.51-1.43-1.11-2.16-1.65a11.43,11.43,0,0,0-1.5-1A8.92,8.92,0,0,1,7.58,34a19.15,19.15,0,0,1-2.52-2.73,5.17,5.17,0,0,0-1.53-1.3,2.11,2.11,0,0,1-1.1-1.89A2,2,0,0,0,.85,26,6.34,6.34,0,0,1,0,25.61Z"/><path class="cls-2" d="M12.88,23.94l1.53-1.29a6.36,6.36,0,0,0,1.74-2.45,4.38,4.38,0,0,1,1.86-2,13.87,13.87,0,0,0,2.07-1.43c.55-.49,1.23-.84,1.8-1.32,1.24-1.06,2.74-1.77,3.89-3A5.6,5.6,0,0,1,27,11.66a36.42,36.42,0,0,1,5.69-2.3,17,17,0,0,1,1.7-.58,6.94,6.94,0,0,1,2.78-.44,4.33,4.33,0,0,0,2.36-.47A6.52,6.52,0,0,1,42.2,7.3a26.69,26.69,0,0,0,3.69-.23c.66-.11,1.31-.13,2-.18a7.67,7.67,0,0,0,.93-.19,6.74,6.74,0,0,1,3.31,0,3.11,3.11,0,0,0,.61,0c1.09,0,2.18,0,3.27,0A3.49,3.49,0,0,1,57.69,7a4.12,4.12,0,0,0,1,.29c.34.08.69.13,1,.21.65.14,1.31.27,2,.46a13.56,13.56,0,0,0,1.79.38,7.36,7.36,0,0,1,3,.78,19.62,19.62,0,0,0,3.48,1.44c.48.18,1,.3,1.43.5,1.9.85,3.79,1.73,5.61,2.74,1.22.68,2.44,1.38,3.62,2.14a15.82,15.82,0,0,1,2.76,2.19,9.25,9.25,0,0,0,1.27,1.31A8.12,8.12,0,0,1,86,20.82a15.47,15.47,0,0,1,1.84,2.3,9.29,9.29,0,0,0,1.29,1.65v1.07c-.1.42-.55.62-.91.93a13.61,13.61,0,0,0-2.6,3A7.47,7.47,0,0,1,83.28,32a22.38,22.38,0,0,0-2.35,1.75,15.56,15.56,0,0,1-2.8,1.84c-2.12,1.13-4.26,2.22-6.41,3.29a11.84,11.84,0,0,1-2.69.91,6.35,6.35,0,0,0-2.24,1,4.91,4.91,0,0,1-1.78.66,12.63,12.63,0,0,1-2.37.19,3.43,3.43,0,0,0-1.52.51,10.18,10.18,0,0,1-3.2.94,15.27,15.27,0,0,1-2.78.17c-.45,0-.93.13-1.35-.19a.35.35,0,0,0-.3,0,14.72,14.72,0,0,1-1.54.23,6.79,6.79,0,0,1-1.66.17,4.45,4.45,0,0,1-2.1-.36.93.93,0,0,0-.29,0,36.38,36.38,0,0,0-4.31-.21c-.57,0-1.16,0-1.73,0a6.35,6.35,0,0,1-2.56-.5c-.88-.29-1.78-.45-2.66-.73a10.51,10.51,0,0,1-3-1.17,4.33,4.33,0,0,0-2.16-.7,6.66,6.66,0,0,1-2.3-.58c-.75-.35-1.51-.66-2.23-1a6.31,6.31,0,0,1-1.52-1,6.23,6.23,0,0,0-2.38-1.39A5.89,5.89,0,0,1,21,34.54c-1.43-1.34-2.79-2.76-4.28-4-.79-.67-1.38-1.5-2.11-2.2a4.58,4.58,0,0,1-.81-1.39,12,12,0,0,1-.92-2.58A2.71,2.71,0,0,1,12.88,23.94ZM41.74,38.58a17.29,17.29,0,0,1-1.64-1.1,18.29,18.29,0,0,1-3.18-3.79A3.83,3.83,0,0,1,36.21,32,8.71,8.71,0,0,0,35.32,29a5.36,5.36,0,0,1-.56-2.11,3.89,3.89,0,0,1,.2-1.76c-.14-1.44.24-2.87.2-4.3a3.94,3.94,0,0,1,.54-2.13c.56-1,1.15-2,1.65-3.1A4.65,4.65,0,0,1,39,13.77c1-.67,1.83-1.48,2.92-2.37a4,4,0,0,0-1,0,8.67,8.67,0,0,1-2.9.41c-.42,0-.8.3-1.25.2-.06,0-.15.14-.23.16a32,32,0,0,0-3,1q-1.47.54-2.88,1.2c-.45.22-.9.47-1.33.73-.9.54-1.8,1.09-2.68,1.66-.3.19-.57.43-.86.64s-.84.61-1.26.9c-.62.41-1.27.76-1.85,1.21a26,26,0,0,0-2.43,2c-1.05,1-2,2.14-3,3.19-.14.51.23.75.51.93a9.58,9.58,0,0,1,1.78,1.39c.48.49.79,1.12,1.24,1.62,1,1.07,2,2.05,3,3a2.41,2.41,0,0,0,.92.49c.36.12.77.11,1.13.23a3.55,3.55,0,0,1,1.66.94c.46.54,1,1,1.48,1.51a8.34,8.34,0,0,1,1.28.21,8,8,0,0,1,2,.6,7.23,7.23,0,0,1,.64.44,6.19,6.19,0,0,0,1.76.93l.62.22a15.65,15.65,0,0,0,3.22.87,7.72,7.72,0,0,1,1.32.25A7.35,7.35,0,0,0,41.74,38.58Zm19-26.68c.41.4.76.77,1.14,1.12s1,1,1.55,1.4a5.68,5.68,0,0,1,2,2.34c.44,1.25,1,2.44,1.52,3.66a5.54,5.54,0,0,1,.58,2.52c0,.31-.17.62-.19.93,0,.68,0,1.37,0,2.05s-.27,1.31-.39,2c-.15.83-.23,1.67-.43,2.49A3.82,3.82,0,0,1,65.72,32c-1,1.1-1.66,2.42-2.62,3.54a19.06,19.06,0,0,1-2.58,2.58s0,.12,0,.23c.3.15.55-.16.8-.16a8.64,8.64,0,0,0,2.71-.63A29.87,29.87,0,0,0,68,36.13a9.54,9.54,0,0,1,2.21-.85,11.28,11.28,0,0,0,1.85-.7c1.48-.63,2.76-1.67,4.33-2.13A2.52,2.52,0,0,0,77,32c.71-.5,1.43-1,2.13-1.52a8.88,8.88,0,0,0,1.28-1.09,10.65,10.65,0,0,0,1.09-1.48,4.31,4.31,0,0,1,1.43-1.45,13.81,13.81,0,0,0,1.52-1.27v-.56c-.53-.62-1-1.21-1.52-1.79a24.06,24.06,0,0,0-2.56-2.17,6.54,6.54,0,0,0-1.69-1.12c-2-.87-3.64-2.2-5.52-3.21-1.05-.57-2.09-1.2-3.18-1.68a14.25,14.25,0,0,1-2.38-1.18,4.64,4.64,0,0,0-1.34-.72c-.62-.17-1.26-.22-1.89-.33l-1.88-.38C61.93,12,61.37,11.6,60.7,11.9Z"/></g></g></svg>